<?xml version="1.0" standalone="no"?>
<!DOCTYPE svg PUBLIC "-//W3C//DTD SVG 20010904//EN"
 "http://www.w3.org/TR/2001/REC-SVG-20010904/DTD/svg10.dtd">
<svg version="1.0" xmlns="http://www.w3.org/2000/svg"
 width="1500.000000pt" height="1500.000000pt" viewBox="0 0 1500.000000 1500.000000"
 preserveAspectRatio="xMidYMid meet">
<metadata>
Created by potrace 1.11, written by Peter Selinger 2001-2013
</metadata>
<g transform="translate(0.000000,1500.000000) scale(0.100000,-0.100000)"
fill="#000000" stroke="none">
<path d="M0 9895 l0 -865 1643 0 c1057 0 1674 4 1732 10 382 44 678 323 750
705 32 166 3 369 -76 532 -90 188 -267 351 -459 422 -161 59 -26 55 -1887 58
l-1703 3 0 -865z"/>
<path d="M7360 8830 c-74 -16 -163 -66 -214 -120 -173 -184 -137 -477 74 -619
257 -171 619 17 623 324 2 93 -17 163 -63 234 -90 139 -263 213 -420 181z"/>
<path d="M4 8520 c0 -52 1 -74 3 -47 2 26 2 68 0 95 -2 26 -3 4 -3 -48z"/>
<path d="M0 5125 l0 -2875 4018 0 4019 0 61 30 c158 80 253 260 223 426 -25
136 -111 246 -239 307 l-67 32 -2225 5 c-1224 3 -2213 6 -2198 8 52 4 189 61
257 106 166 111 272 294 288 496 8 103 -17 221 -69 330 -33 68 -57 100 -127
170 -93 92 -169 138 -283 171 -61 17 6 18 2232 18 1448 1 2337 5 2408 11 140
13 221 32 333 80 265 114 483 365 559 642 81 298 17 629 -169 875 -133 176
-318 300 -540 362 l-96 26 -1775 5 c-976 3 -1762 6 -1746 8 117 9 301 88 406
174 419 344 410 974 -19 1300 -76 58 -198 118 -291 144 -62 18 -170 19 -2512
22 l-2448 2 0 -2875z"/>
<path d="M10870 6305 c-243 -51 -441 -156 -610 -325 -176 -174 -295 -410 -330
-649 -19 -128 -8 -343 24 -464 107 -411 425 -734 831 -843 79 -21 130 -27 247
-31 176 -6 273 6 413 52 596 195 926 797 771 1407 -111 437 -454 760 -908 852
-96 20 -345 20 -438 1z"/>
</g>
</svg>
